# xmcd CD database file
#
# Track frame offsets:
#	150
#	17792
#	36137
#	54325
#	73547
#	93955
#	106600
#	119185
#	134405
#	154452
#	168582
#	190515
#	210327
#	229942
#	247005
#	266695
#	288662
#	311087
#
# Disc length: 4396 seconds
#
# Revision: 0
# Processed by: cddbd v1.5.1PL0 Copyright (c) Steve Scherf et al.
# Submitted via: CDex 1.51
#
DISCID=06112a12
DTITLE=The Fuse - Forever
DYEAR=1992
DGENRE=Rock
TTITLE0=Forever (Live 1991)
TTITLE1=Kids (Live 1989)
TTITLE2=Happy! Happy!
TTITLE3=あまのじゃく (Remix)
TTITLE4=Welcome To Huse World
TTITLE5=Chance! (Single Mix)
TTITLE6=この指とまれ
TTITLE7=D-Kiss (Single Mix)
TTITLE8=Sha-La-La (Single Mix)
TTITLE9=Boys and Girls (Demo Track 1989)
TTITLE10=そばにいて
TTITLE11=Travelling Song
TTITLE12=Glory Days (Live 1991)
TTITLE13=My Favorite Movie
TTITLE14=Ready Steady Go!
TTITLE15=Girl Friend (Acoustic Version)
TTITLE16=Telepathy (Live 1992.2.10 Club Quattro)
TTITLE17=Forever'92 (Live 1992.2.10 Club Quattro)
EXTD=YEAR: 1992
EXTT0=
EXTT1=
EXTT2=
EXTT3=
EXTT4=
EXTT5=
EXTT6=
EXTT7=
EXTT8=
EXTT9=
EXTT10=
EXTT11=
EXTT12=
EXTT13=
EXTT14=
EXTT15=
EXTT16=
EXTT17=
PLAYORDER=
